<?xml version="1.0" standalone="no"?>
<!DOCTYPE svg PUBLIC "-//W3C//DTD SVG 20010904//EN"
 "http://www.w3.org/TR/2001/REC-SVG-20010904/DTD/svg10.dtd">
<svg version="1.0" xmlns="http://www.w3.org/2000/svg"
 width="512.000000pt" height="512.000000pt" viewBox="0 0 512.000000 512.000000"
 preserveAspectRatio="xMidYMid meet">

<g transform="translate(0.000000,512.000000) scale(0.100000,-0.100000)"
fill="#000000" stroke="none">
<path d="M0 2560 l0 -2560 2560 0 2560 0 0 2560 0 2560 -2560 0 -2560 0 0
-2560z m2837 1830 c282 -40 558 -151 798 -321 396 -281 666 -711 752 -1199 27
-157 25 -483 -4 -640 -91 -482 -362 -906 -758 -1187 -206 -145 -473 -257 -730
-305 -173 -32 -487 -32 -660 0 -770 142 -1354 723 -1497 1488 -32 171 -32 497
-1 664 73 384 241 705 514 978 280 282 640 466 1021 522 171 25 391 25 565 0z"/>
<path d="M2320 4285 c-405 -56 -805 -272 -1070 -577 -439 -506 -552 -1216
-292 -1831 89 -209 203 -377 372 -547 255 -256 552 -412 925 -487 128 -25 482
-25 610 0 373 75 670 231 925 487 333 335 510 760 510 1230 0 802 -539 1491
-1323 1691 -187 48 -456 61 -657 34z m566 -110 c750 -155 1289 -787 1321
-1551 19 -461 -152 -897 -482 -1230 -130 -130 -245 -215 -410 -300 -141 -73
-247 -112 -411 -150 -111 -26 -134 -28 -339 -29 -194 0 -233 3 -330 24 -663
141 -1153 630 -1297 1291 -19 91 -22 134 -23 325 0 193 3 233 23 329 122 566
506 1017 1041 1221 103 39 282 83 389 95 134 15 381 4 518 -25z"/>
<path d="M1880 3922 c8 -11 83 -101 167 -200 l152 -180 -251 -212 c-137 -116
-251 -210 -252 -208 -21 31 -329 388 -335 388 -10 0 -31 -109 -31 -157 0 -66
31 -191 64 -258 65 -132 194 -246 336 -297 55 -20 85 -23 200 -23 l135 -1 118
-139 c365 -429 581 -692 580 -705 0 -8 -5 -46 -11 -85 -25 -156 22 -301 136
-426 101 -110 224 -162 377 -163 147 0 148 -6 -25 198 -83 99 -148 182 -143
186 4 4 84 71 178 150 l169 143 34 -39 c19 -21 84 -99 145 -171 61 -73 114
-133 118 -133 15 0 31 68 36 150 10 163 -44 298 -161 407 -105 99 -217 143
-363 143 l-82 0 -163 193 c-90 105 -250 294 -355 419 l-191 227 19 68 c25 89
25 226 1 314 -67 240 -279 411 -532 427 -84 5 -84 5 -70 -16z"/>
</g>
</svg>
